<svg width="98" height="91" viewBox="0 0 98 91" fill="none" xmlns="http://www.w3.org/2000/svg">
<g clip-path="url(#clip0_11869_41)">
<path d="M97.5479 41.5686C97.5479 34.2684 95.8983 27.5431 92.6031 23.316C89.3079 18.7083 83.3321 15.2465 73.2323 15.2465C72.463 15.2465 71.6858 15.2545 70.9047 15.2624C55.6063 15.9127 39.1778 17.8042 25.0849 17.8042C16.5237 17.8042 11.5114 16.2577 8.36295 13.1687L8.35502 13.1845C6.32079 11.1265 4.94481 8.62437 4.40155 5.97948C4.3738 5.79707 4.34207 5.6107 4.32225 5.42433C4.32225 5.41243 4.32225 5.40053 4.32225 5.3926C4.26673 4.889 4.24294 4.37747 4.25087 3.8699C4.23501 2.67633 4.31432 1.47879 4.48879 0.28125H0.0555151V47.3541C0.0158615 48.2027 0 49.0949 0 50.0267C0 56.5617 1.13409 62.5176 3.81071 67.1293C7.82763 74.0449 13.6012 77.1221 24.0023 77.1221C39.1461 77.1221 57.4859 74.8142 73.042 74.8142C80.4691 74.8142 84.4702 76.333 86.9168 78.4703C87.8169 79.1166 88.6695 79.8582 89.4705 80.6949C91.4413 82.7529 92.6309 85.5128 93.2336 88.4313C93.3803 89.1688 93.4477 89.8866 93.4438 90.5567H97.5479V42.215H97.54C97.54 41.9969 97.5479 41.7827 97.5479 41.5607V41.5686ZM6.38027 24.2083C10.2663 28.7486 15.6751 30.8106 24.1927 30.8106C39.3364 30.8106 57.6762 28.5027 73.2323 28.5027C83.1219 28.5027 86.9366 31.1952 89.0977 34.4627C90.6442 36.7666 91.2589 39.8397 91.2589 42.9168C91.2589 43.8447 91.2192 44.7449 91.1597 45.5935C87.6623 41.8819 82.0037 39.2647 73.2284 39.2647C57.6722 39.2647 39.7448 41.5726 24.8073 41.5726C15.6394 41.5726 11.103 39.6494 8.5295 35.8069C6.983 33.6974 6.26131 30.4299 6.26131 26.9681C6.26131 26.072 6.30493 25.1322 6.3763 24.2083H6.38027ZM91.243 68.1802C87.7694 64.3179 82.0473 61.5659 73.046 61.5659C57.4898 61.5659 39.5624 63.8738 24.6249 63.8738C15.457 63.8738 10.9206 61.9506 8.34709 58.1081C6.8006 55.9986 6.0789 52.7311 6.0789 49.2694C6.0789 48.8252 6.0908 48.3652 6.11062 47.9092C10.0165 52.6756 15.4768 54.8367 24.1966 54.8367C39.3404 54.8367 57.6802 52.5289 73.2363 52.5289C83.1259 52.5289 86.9406 55.2214 89.1017 58.4888C90.6482 60.7927 91.2628 63.8659 91.2628 66.943C91.2628 67.3593 91.2549 67.7717 91.239 68.1802H91.243Z" fill="#FFFCF5"/>
</g>
<defs>
<clipPath id="clip0_11869_41">
<rect width="98" height="90.5649" fill="white"/>
</clipPath>
</defs>
</svg>