<svg xmlns="http://www.w3.org/2000/svg" viewBox="0 0 200 200">
  <rect width="200" height="200" fill="#0f2f25" />
  <g transform="translate(31 18) scale(0.78)">
    <g transform="translate(-98.105469,-52.662109)">
      <path
        fill="#d4af37"
        d="m 232.74805,52.662109 c -42.20266,0 -42.20313,34.550782 -42.20313,34.550782 l -0.11914,68.646489 c 0,-10e-6 -4.9e-4,32.9707 -26.97656,32.9707 -26.8864,0 -26.88672,-32.9707 -26.88672,-32.9707 v -49.26172 c 0,0 2.3e-4,-19.228519 -19.23438,-19.228519 -19.222461,0 -19.222651,19.228519 -19.222651,19.228519 V 253.34375 H 113.46289 V 122.03906 c 0,0 5.7e-4,-3.87109 3.86523,-3.87109 3.83501,0 3.83594,3.87109 3.83594,3.87109 l 0.041,53.0918 c 0,0 0.36974,42.25 42.24414,42.25 41.8746,0 42.375,-42.25 42.375,-42.25 l -0.006,-60.94922 c 0,0 0.001,-32.968749 26.92969,-32.968749 26.92827,0 26.92773,32.968749 26.92773,32.968749 v 103.19922 h 15.40039 V 87.212891 c 0,0 -3.2e-4,-34.550782 -42.32812,-34.550782 z"
      />
      <path
        fill="#d4af37"
        d="m 125.26318,159.37 v 8.49013 c 0,0 -0.0735,19.2703 -13.27625,19.2703 -13.41613,0 -13.22846,-19.2703 -13.22846,-19.2703 V 159.37 h 7.4413 l 0.16689,9.66918 c 0,0 -0.0651,7.33399 5.62027,7.33399 5.96785,0 5.9125,-7.87083 5.9125,-7.87083 v -9.13279 z"
        transform="matrix(1,0,0,-1,120.77986,321.13036)"
      />
    </g>
  </g>
</svg>
