<?xml version="1.0" encoding="UTF-8" standalone="no"?>
<svg
   width="46.823456mm"
   height="53.097019mm"
   viewBox="0 0 176.97054 200.68163"
   version="1.2"
   id="svg109645"
   sodipodi:docname="ua-solid-green.svg"
   inkscape:version="1.4 (86a8ad7, 2024-10-11)"
   xmlns:inkscape="http://www.inkscape.org/namespaces/inkscape"
   xmlns:sodipodi="http://sodipodi.sourceforge.net/DTD/sodipodi-0.dtd"
   xmlns="http://www.w3.org/2000/svg"
   xmlns:svg="http://www.w3.org/2000/svg"
   xmlns:rdf="http://www.w3.org/1999/02/22-rdf-syntax-ns#"
   xmlns:cc="http://creativecommons.org/ns#"
   xmlns:dc="http://purl.org/dc/elements/1.1/">
  <metadata
     id="metadata109649">
    <rdf:RDF>
      <cc:Work
         rdf:about="">
        <dc:format>image/svg+xml</dc:format>
        <dc:type
           rdf:resource="http://purl.org/dc/dcmitype/StillImage" />
      </cc:Work>
    </rdf:RDF>
  </metadata>
  <sodipodi:namedview
     pagecolor="#ffffff"
     bordercolor="#666666"
     borderopacity="1"
     objecttolerance="10"
     gridtolerance="10"
     guidetolerance="10"
     inkscape:pageopacity="0"
     inkscape:pageshadow="2"
     inkscape:window-width="2560"
     inkscape:window-height="1369"
     id="namedview109647"
     showgrid="false"
     fit-margin-top="0"
     fit-margin-left="0"
     fit-margin-right="0"
     fit-margin-bottom="0"
     units="px"
     inkscape:zoom="2.1066727"
     inkscape:cx="-6.8828917"
     inkscape:cy="76.661173"
     inkscape:window-x="-8"
     inkscape:window-y="10"
     inkscape:window-maximized="1"
     inkscape:current-layer="g162799"
     inkscape:showpageshadow="2"
     inkscape:pagecheckerboard="0"
     inkscape:deskcolor="#d1d1d1"
     inkscape:document-units="mm" />
  <defs
     id="defs10792">
    <inkscape:path-effect
       effect="fillet_chamfer"
       id="path-effect1"
       is_visible="true"
       lpeversion="1"
       nodesatellites_param="F,0,0,1,0,3.7551782,0,1 @ F,0,0,1,0,0,0,1 @ F,0,0,1,0,0,0,1 @ F,0,0,1,0,0,0,1 @ F,0,0,1,0,3.8069453,0,1 @ F,0,1,1,0,3.8069453,0,1 @ F,0,0,1,0,0,0,1 @ F,0,0,1,0,0.39207625,0,1 @ F,0,0,1,0,0,0,1 @ F,0,0,1,0,3.7551782,0,1"
       radius="0"
       unit="px"
       method="auto"
       mode="F"
       chamfer_steps="1"
       flexible="false"
       use_knot_distance="true"
       apply_no_radius="true"
       apply_with_radius="true"
       only_selected="false"
       hide_knots="false" />
    <inkscape:path-effect
       effect="fillet_chamfer"
       id="path-effect1-0"
       is_visible="true"
       lpeversion="1"
       nodesatellites_param="F,0,0,1,0,0,0,1 @ F,0,0,1,0,0,0,1 @ F,0,0,1,0,0,0,1 @ F,0,0,1,0,0,0,1 @ F,0,0,1,0,3.6810762,0,1 @ F,0,0,1,0,3.8811002,0,1 @ F,0,1,1,0,0,0,1 @ F,0,0,1,0,0,0,1 @ F,0,0,1,0,0,0,1 @ F,0,0,1,0,0,0,1"
       radius="0"
       unit="px"
       method="auto"
       mode="F"
       chamfer_steps="1"
       flexible="false"
       use_knot_distance="true"
       apply_no_radius="true"
       apply_with_radius="true"
       only_selected="false"
       hide_knots="false" />
  </defs>
  <g
     id="g162799"
     transform="translate(-98.105469,-52.662109)">
    <path
       id="path102656"
       style="fill:#1a4f1a;fill-opacity:1;fill-rule:nonzero;stroke:none;stroke-width:1.527;stroke-dasharray:none"
       d="m 232.74805,52.662109 c -42.20266,0 -42.20313,34.550782 -42.20313,34.550782 l -0.11914,68.646489 c 0,-10e-6 -4.9e-4,32.9707 -26.97656,32.9707 -26.8864,0 -26.88672,-32.9707 -26.88672,-32.9707 v -49.26172 c 0,0 2.3e-4,-19.228519 -19.23438,-19.228519 -19.222461,0 -19.222651,19.228519 -19.222651,19.228519 V 253.34375 H 113.46289 V 122.03906 c 0,0 5.7e-4,-3.87109 3.86523,-3.87109 3.83501,0 3.83594,3.87109 3.83594,3.87109 l 0.041,53.0918 c 0,0 0.36974,42.25 42.24414,42.25 41.8746,0 42.375,-42.25 42.375,-42.25 l -0.006,-60.94922 c 0,0 0.001,-32.968749 26.92969,-32.968749 26.92827,0 26.92773,32.968749 26.92773,32.968749 v 103.19922 h 15.40039 V 87.212891 c 0,0 -3.2e-4,-34.550782 -42.32812,-34.550782 z"
       sodipodi:nodetypes="sccsccsccccsccsccsccccss" />
    <path
       inkscape:connector-curvature="0"
       id="path102650-9"
       d="m 125.26318,159.37 v 8.49013 c 0,0 -0.0735,19.2703 -13.27625,19.2703 -13.41613,0 -13.22846,-19.2703 -13.22846,-19.2703 V 159.37 h 7.4413 l 0.16689,9.66918 c 0,0 -0.0651,7.33399 5.62027,7.33399 5.96785,0 5.9125,-7.87083 5.9125,-7.87083 v -9.13279 z"
       style="clip-rule:nonzero;fill:#1a4f1a;fill-opacity:1;fill-rule:nonzero;stroke:none;stroke-width:1.527;stroke-dasharray:none"
       sodipodi:nodetypes="ccsccccsccc"
       transform="matrix(1,0,0,-1,120.77986,321.13036)" />
  </g>
</svg>
